<?xml version="1.0" standalone="no"?>
<!DOCTYPE svg PUBLIC "-//W3C//DTD SVG 20010904//EN"
 "http://www.w3.org/TR/2001/REC-SVG-20010904/DTD/svg10.dtd">
<svg version="1.0" xmlns="http://www.w3.org/2000/svg"
 width="700.000000pt" height="700.000000pt" viewBox="0 0 700.000000 700.000000"
 preserveAspectRatio="xMidYMid meet">
<metadata>
Created by potrace 1.14, written by Peter Selinger 2001-2017
</metadata>
<g transform="translate(0.000000,700.000000) scale(0.100000,-0.100000)"
fill="#000000" stroke="none">
<path d="M2910 6214 c-316 -119 -620 -233 -675 -255 -55 -21 -300 -113 -545
-204 -245 -92 -447 -171 -450 -176 -3 -4 -5 -139 -5 -298 1 -260 -1 -289 -15
-278 -13 11 -13 10 -1 -6 18 -23 22 -57 7 -57 -7 0 -8 -3 -1 -8 7 -4 11 -85
11 -214 0 -185 -2 -206 -16 -195 -13 11 -13 10 -1 -6 18 -23 22 -57 7 -57 -7
0 -8 -3 -1 -8 7 -4 11 -85 11 -214 0 -185 -2 -206 -16 -195 -13 11 -13 10 -1
-6 18 -23 22 -57 7 -57 -8 0 -8 -3 -1 -8 13 -8 14 -71 2 -89 -5 -7 -4 -13 1
-13 5 0 8 -26 8 -57 -1 -32 1 -79 4 -105 4 -26 3 -45 -1 -42 -4 2 -4 -8 0 -23
5 -16 9 -55 10 -87 0 -32 3 -61 5 -64 4 -7 16 -117 20 -172 0 -14 4 -27 7 -30
4 -3 9 -25 13 -50 3 -25 11 -65 16 -90 21 -91 24 -105 24 -127 1 -11 4 -19 9
-16 4 2 7 -4 7 -14 0 -10 7 -38 16 -62 8 -24 12 -51 9 -60 -3 -8 -3 -12 1 -8
6 6 35 -65 58 -138 2 -5 8 -21 13 -35 37 -87 51 -129 46 -134 -4 -3 -2 -6 4
-6 13 0 64 -123 59 -142 -1 -7 -1 -10 1 -5 8 13 23 7 23 -9 0 -8 12 -35 26
-59 14 -25 22 -50 18 -56 -4 -7 -3 -9 4 -6 6 4 26 -21 48 -60 20 -38 64 -107
96 -156 32 -48 56 -93 52 -99 -4 -7 -3 -8 4 -4 6 3 16 -3 23 -16 6 -12 22 -33
35 -47 14 -14 22 -32 19 -39 -3 -7 -1 -11 4 -8 4 3 36 -30 69 -73 34 -43 71
-88 82 -101 11 -12 17 -27 13 -33 -3 -5 -1 -7 4 -4 13 8 46 -27 36 -38 -5 -4
-3 -5 3 -2 11 6 61 -42 56 -55 -1 -5 5 -8 14 -8 10 0 14 -6 10 -15 -3 -8 -2
-14 2 -13 14 4 52 -23 52 -38 0 -8 4 -13 9 -10 5 3 27 -14 50 -39 22 -24 41
-42 41 -39 0 4 7 1 15 -6 8 -7 12 -16 9 -21 -3 -5 -2 -8 3 -7 13 4 63 -34 57
-43 -3 -5 -1 -8 4 -7 6 2 43 -21 82 -51 56 -41 69 -55 59 -63 -11 -7 -9 -8 5
-4 27 9 135 -62 115 -76 -10 -7 -8 -8 7 -3 14 3 28 -1 38 -10 9 -9 16 -13 16
-10 0 4 15 -2 33 -13 17 -11 55 -32 84 -48 29 -15 49 -32 46 -37 -3 -6 -1 -7
5 -3 13 8 153 -54 146 -65 -2 -4 6 -5 18 -1 16 4 19 2 13 -8 -5 -8 -4 -11 3
-6 6 3 34 -3 64 -15 29 -12 68 -26 86 -31 18 -5 30 -13 27 -18 -3 -6 0 -7 8
-5 7 3 42 -3 78 -15 35 -11 70 -20 78 -20 8 0 20 -8 28 -17 8 -10 12 -13 9 -6
-4 7 12 14 46 18 28 4 66 14 85 21 19 8 38 12 43 9 5 -3 12 0 15 6 4 5 14 8
22 5 9 -4 11 -2 7 6 -5 7 0 9 14 6 12 -4 22 -3 22 1 0 6 65 33 90 37 3 0 27
10 53 22 27 12 54 19 60 15 7 -3 8 -2 4 2 -10 11 151 87 166 78 5 -3 7 -2 4 4
-4 5 6 16 20 24 40 21 183 107 197 118 6 5 17 11 25 13 7 2 30 18 50 36 20 17
41 30 48 27 7 -2 15 1 19 7 5 7 2 8 -7 4 -8 -4 -5 -1 5 8 10 8 23 13 29 9 6
-3 7 -2 4 4 -3 5 2 16 11 24 63 53 100 77 107 71 5 -4 5 -2 1 5 -3 6 3 18 14
26 12 8 52 44 91 81 39 36 74 64 79 61 4 -2 7 3 6 13 0 10 6 17 15 16 9 -1 16
4 15 10 0 6 3 12 8 13 5 1 14 12 21 25 6 13 17 22 23 21 7 -2 9 4 5 14 -5 13
-2 15 11 10 12 -5 16 -3 14 5 -5 15 32 59 43 52 5 -3 7 1 4 8 -5 14 48 78 65
78 5 0 9 3 8 8 -4 11 54 92 62 87 3 -2 7 1 7 8 0 7 28 53 62 102 111 160 272
446 296 523 3 12 11 19 17 16 7 -4 8 -2 4 4 -4 6 -2 19 3 29 5 10 17 39 27 66
15 41 19 46 33 35 14 -12 15 -11 2 5 -9 11 -11 21 -5 25 5 4 10 16 10 27 2 32
48 149 64 163 11 10 11 12 1 6 -11 -6 -13 -2 -7 17 4 13 17 59 28 102 11 42
24 77 28 77 4 0 5 12 2 28 -5 25 -4 26 14 12 17 -14 18 -14 6 1 -7 10 -10 29
-7 45 3 16 8 45 11 64 2 19 8 49 11 65 4 17 6 36 4 43 -1 6 2 12 7 12 5 0 7
12 4 26 -4 21 -2 25 9 19 11 -7 12 -6 2 7 -7 8 -11 17 -8 20 5 5 13 77 14 136
1 24 5 31 14 26 9 -6 9 -4 1 7 -9 12 -11 31 -5 42 1 1 2 61 3 132 0 78 5 136
12 144 8 11 8 13 0 8 -14 -8 -14 95 1 105 7 5 7 8 -1 8 -12 0 -13 99 0 119 6
9 5 12 -1 8 -12 -8 -11 292 1 312 6 9 5 12 0 8 -13 -7 -12 213 0 232 6 9 5 12
-1 8 -13 -8 -12 96 2 105 7 5 7 8 -1 8 -12 0 -13 99 0 119 6 9 5 12 -1 8 -11
-7 -12 152 0 170 4 6 4 14 -1 17 -4 2 -8 100 -7 216 0 117 -2 216 -5 221 -3 4
-170 69 -370 144 -344 129 -448 167 -530 200 -19 7 -62 23 -95 35 -33 12 -70
26 -83 31 -12 5 -113 43 -225 84 -111 42 -218 82 -237 90 -19 8 -80 31 -135
51 -55 20 -122 46 -150 56 -27 11 -61 23 -75 28 -14 4 -97 35 -186 69 -89 33
-167 61 -175 61 -8 -1 -273 -98 -589 -216z m606 -393 c-3 -5 0 -9 7 -8 39 1
58 -4 51 -15 -4 -6 -3 -8 4 -4 6 3 34 -3 64 -15 29 -12 68 -26 86 -31 29 -8
32 -11 20 -26 -12 -15 -11 -16 4 -3 15 11 25 10 70 -7 29 -12 91 -35 138 -52
47 -17 94 -35 105 -40 11 -5 37 -14 58 -21 26 -9 36 -18 32 -28 -5 -12 -3 -12
11 0 14 11 18 11 21 1 3 -6 9 -9 14 -6 6 3 15 2 22 -3 7 -5 31 -15 54 -23 23
-7 40 -17 36 -23 -3 -6 -1 -7 4 -4 12 8 105 -22 114 -35 3 -6 10 -9 15 -8 15
2 94 -22 100 -31 3 -5 14 -9 25 -9 10 0 19 -5 19 -12 0 -6 3 -9 6 -6 6 6 91
-19 109 -32 6 -4 22 -10 38 -14 15 -3 27 -11 27 -17 0 -6 4 -8 8 -5 5 3 40 -6
78 -20 38 -14 77 -28 86 -31 10 -3 15 -10 11 -16 -3 -5 -1 -7 4 -4 15 10 163
-44 156 -56 -3 -6 -1 -7 6 -3 13 8 81 -14 81 -27 0 -4 -6 -5 -12 -1 -10 6 -10
5 -1 -7 16 -20 10 -1580 -7 -1619 -1 -3 -1 -18 0 -34 1 -24 -1 -28 -17 -23
-15 5 -16 5 -3 -4 14 -10 14 -20 4 -78 -7 -36 -13 -66 -14 -66 -1 0 -3 -9 -4
-20 -12 -89 -19 -125 -25 -125 -4 0 -8 -12 -9 -27 -2 -24 -32 -134 -50 -183
-3 -8 -6 -19 -8 -25 -24 -80 -89 -236 -142 -340 -47 -92 -141 -256 -151 -265
-3 -3 -19 -25 -35 -50 -34 -54 -95 -135 -156 -210 -216 -263 -471 -471 -748
-609 -55 -28 -105 -51 -109 -51 -4 0 -21 -7 -36 -15 -65 -34 -169 -65 -195
-59 -52 13 -227 86 -326 137 -280 142 -574 390 -766 646 -14 18 -35 45 -46 59
-136 171 -403 683 -378 724 4 6 3 8 -2 5 -8 -4 -31 52 -39 93 -1 3 -9 29 -18
59 -9 30 -15 57 -12 59 3 3 0 11 -6 18 -6 8 -8 22 -5 31 4 10 4 14 -1 10 -9
-9 -40 134 -39 180 1 17 -2 29 -6 27 -5 -3 -8 12 -8 33 -1 21 -5 57 -9 81 -5
25 -5 45 1 48 5 3 3 13 -4 21 -18 22 -22 1416 -4 1406 6 -4 6 0 -1 9 -14 16
-15 101 -2 92 4 -2 11 0 14 6 4 6 1 9 -6 8 -7 -2 -14 9 -15 25 -2 19 1 25 9
20 9 -5 9 -3 0 8 -11 13 -3 19 50 37 71 25 81 27 71 10 -4 -7 -3 -8 5 -4 6 4
9 11 7 15 -6 9 156 73 190 75 12 0 20 4 18 7 -2 4 4 9 14 12 19 6 117 42 286
106 59 22 113 38 119 34 5 -3 7 -2 4 3 -3 6 7 15 24 21 16 6 27 7 23 2 -3 -5
11 0 30 12 19 11 41 17 47 13 8 -5 9 -3 5 5 -5 8 -3 11 5 10 8 -2 24 2 37 9
12 7 27 10 32 7 6 -3 10 -3 10 2 0 15 196 87 211 77 5 -3 9 -1 9 4 0 13 78 44
91 37 5 -4 9 -2 9 3 0 11 90 45 90 34 0 -4 4 -2 8 3 4 6 20 16 35 23 23 10 27
10 21 0 -4 -7 2 -4 14 6 22 19 22 19 44 0 19 -16 20 -16 9 -1 -8 9 -12 19 -10
21 12 12 102 35 112 30 7 -4 9 -3 4 1 -4 5 5 14 20 21 33 15 66 18 59 5z"/>
<path d="M3455 5801 c-3 -5 -2 -12 3 -15 5 -3 9 1 9 9 0 17 -3 19 -12 6z"/>
<path d="M3514 5786 c1 -8 5 -18 8 -22 4 -3 5 1 4 10 -1 8 -5 18 -8 22 -4 3
-5 -1 -4 -10z"/>
<path d="M3576 5767 c3 -10 9 -15 12 -12 3 3 0 11 -7 18 -10 9 -11 8 -5 -6z"/>
<path d="M3493 5745 c0 -8 4 -12 9 -9 5 3 6 10 3 15 -9 13 -12 11 -12 -6z"/>
<path d="M3410 5739 c0 -5 5 -7 10 -4 6 3 10 8 10 11 0 2 -4 4 -10 4 -5 0 -10
-5 -10 -11z"/>
<path d="M3284 5723 c4 -4 16 -8 28 -10 28 -4 18 6 -12 12 -12 2 -20 1 -16 -2z"/>
<path d="M3670 5726 c0 -2 7 -7 16 -10 8 -3 12 -2 9 4 -6 10 -25 14 -25 6z"/>
<path d="M3710 5721 c0 -6 4 -12 8 -15 5 -3 9 1 9 9 0 8 -4 15 -9 15 -4 0 -8
-4 -8 -9z"/>
<path d="M3370 5700 c0 -5 5 -10 11 -10 5 0 7 5 4 10 -3 6 -8 10 -11 10 -2 0
-4 -4 -4 -10z"/>
<path d="M3789 5697 c6 -8 9 -16 6 -19 -3 -2 2 -5 10 -5 13 0 13 3 -2 19 -19
21 -31 25 -14 5z"/>
<path d="M3149 5677 c6 -8 7 -18 3 -22 -4 -5 -1 -5 6 -1 10 6 10 11 1 22 -6 8
-14 14 -16 14 -3 0 0 -6 6 -13z"/>
<path d="M3210 5679 c0 -5 5 -7 10 -4 6 3 10 8 10 11 0 2 -4 4 -10 4 -5 0 -10
-5 -10 -11z"/>
<path d="M3296 5678 c3 -5 10 -6 15 -3 13 9 11 12 -6 12 -8 0 -12 -4 -9 -9z"/>
<path d="M3736 5662 c-3 -5 1 -9 9 -9 8 0 12 4 9 9 -3 4 -7 8 -9 8 -2 0 -6 -4
-9 -8z"/>
<path d="M4010 5620 c0 -5 5 -10 11 -10 5 0 7 5 4 10 -3 6 -8 10 -11 10 -2 0
-4 -4 -4 -10z"/>
<path d="M3006 5598 c3 -5 10 -6 15 -3 13 9 11 12 -6 12 -8 0 -12 -4 -9 -9z"/>
<path d="M2919 5588 c-6 -21 -5 -38 1 -38 5 0 8 9 7 20 -1 17 -5 26 -8 18z"/>
<path d="M3050 5580 c0 -5 5 -10 11 -10 5 0 7 5 4 10 -3 6 -8 10 -11 10 -2 0
-4 -4 -4 -10z"/>
<path d="M4050 5546 c0 -2 7 -7 16 -10 8 -3 12 -2 9 4 -6 10 -25 14 -25 6z"/>
<path d="M4095 5540 c3 -5 8 -10 11 -10 2 0 4 5 4 10 0 6 -5 10 -11 10 -5 0
-7 -4 -4 -10z"/>
<path d="M2756 5527 c3 -10 9 -15 12 -12 3 3 0 11 -7 18 -10 9 -11 8 -5 -6z"/>
<path d="M2787 5519 c7 -7 15 -10 18 -7 3 3 -2 9 -12 12 -14 6 -15 5 -6 -5z"/>
<path d="M2930 5521 c0 -6 4 -13 10 -16 6 -3 7 1 4 9 -7 18 -14 21 -14 7z"/>
<path d="M4370 5481 c0 -6 4 -13 10 -16 6 -3 7 1 4 9 -7 18 -14 21 -14 7z"/>
<path d="M2626 5458 c3 -5 10 -6 15 -3 13 9 11 12 -6 12 -8 0 -12 -4 -9 -9z"/>
<path d="M2690 5459 c0 -5 5 -7 10 -4 6 3 10 8 10 11 0 2 -4 4 -10 4 -5 0 -10
-5 -10 -11z"/>
<path d="M4295 5460 c-3 -5 -1 -10 4 -10 6 0 11 5 11 10 0 6 -2 10 -4 10 -3 0
-8 -4 -11 -10z"/>
<path d="M2530 5456 c0 -2 8 -10 18 -17 15 -13 16 -12 3 4 -13 16 -21 21 -21
13z"/>
<path d="M2570 5419 c0 -5 5 -7 10 -4 6 3 10 8 10 11 0 2 -4 4 -10 4 -5 0 -10
-5 -10 -11z"/>
<path d="M2625 5420 c-3 -6 1 -7 9 -4 18 7 21 14 7 14 -6 0 -13 -4 -16 -10z"/>
<path d="M4350 5425 c0 -7 30 -13 34 -7 3 4 -4 9 -15 9 -10 1 -19 0 -19 -2z"/>
<path d="M4415 5420 c3 -5 8 -10 11 -10 2 0 4 5 4 10 0 6 -5 10 -11 10 -5 0
-7 -4 -4 -10z"/>
<path d="M2439 5418 c-5 -18 -6 -38 -1 -34 7 8 12 36 6 36 -2 0 -4 -1 -5 -2z"/>
<path d="M4546 5402 c-3 -5 1 -9 9 -9 8 0 12 4 9 9 -3 4 -7 8 -9 8 -2 0 -6 -4
-9 -8z"/>
<path d="M4473 5385 c0 -8 4 -12 9 -9 5 3 6 10 3 15 -9 13 -12 11 -12 -6z"/>
<path d="M2533 5375 c0 -8 4 -12 9 -9 5 3 6 10 3 15 -9 13 -12 11 -12 -6z"/>
<path d="M4650 5380 c0 -5 5 -10 11 -10 5 0 7 5 4 10 -3 6 -8 10 -11 10 -2 0
-4 -4 -4 -10z"/>
<path d="M2333 5351 c0 -11 5 -18 9 -15 4 3 5 11 1 19 -7 21 -12 19 -10 -4z"/>
<path d="M4587 5359 c7 -7 15 -10 18 -7 3 3 -2 9 -12 12 -14 6 -15 5 -6 -5z"/>
<path d="M2233 5325 c0 -8 4 -12 9 -9 5 3 6 10 3 15 -9 13 -12 11 -12 -6z"/>
<path d="M4799 5308 c-5 -18 -6 -38 -1 -34 7 8 12 36 6 36 -2 0 -4 -1 -5 -2z"/>
<path d="M2179 5298 c-5 -9 -5 -48 -1 -43 6 6 11 45 5 45 -2 0 -4 -1 -4 -2z"/>
<path d="M4836 5278 c3 -5 10 -6 15 -3 13 9 11 12 -6 12 -8 0 -12 -4 -9 -9z"/>
<path d="M4873 5265 c0 -8 4 -12 9 -9 5 3 6 10 3 15 -9 13 -12 11 -12 -6z"/>
<path d="M2130 5259 c0 -5 5 -7 10 -4 6 3 10 8 10 11 0 2 -4 4 -10 4 -5 0 -10
-5 -10 -11z"/>
<path d="M4830 5256 c0 -2 8 -10 18 -17 15 -13 16 -12 3 4 -13 16 -21 21 -21
13z"/>
<path d="M1976 5242 c-3 -5 1 -9 9 -9 8 0 12 4 9 9 -3 4 -7 8 -9 8 -2 0 -6 -4
-9 -8z"/>
<path d="M4795 5240 c-3 -5 -1 -10 4 -10 6 0 11 5 11 10 0 6 -2 10 -4 10 -3 0
-8 -4 -11 -10z"/>
<path d="M5016 5233 c-6 -14 -5 -15 5 -6 7 7 10 15 7 18 -3 3 -9 -2 -12 -12z"/>
<path d="M2093 5215 c0 -8 4 -12 9 -9 5 3 6 10 3 15 -9 13 -12 11 -12 -6z"/>
<path d="M1875 5209 c-4 -6 -5 -12 -2 -15 2 -3 7 2 10 11 7 17 1 20 -8 4z"/>
<path d="M5069 5203 c-13 -16 -12 -17 4 -4 9 7 17 15 17 17 0 8 -8 3 -21 -13z"/>
<path d="M1955 5200 c-3 -5 -1 -10 4 -10 6 0 11 5 11 10 0 6 -2 10 -4 10 -3 0
-8 -4 -11 -10z"/>
<path d="M5020 5205 c0 -2 6 -8 13 -14 10 -8 14 -7 14 2 0 8 -6 14 -14 14 -7
0 -13 -1 -13 -2z"/>
<path d="M5154 5176 c1 -8 5 -18 8 -22 4 -3 5 1 4 10 -1 8 -5 18 -8 22 -4 3
-5 -1 -4 -10z"/>
<path d="M1850 5166 c0 -2 7 -7 16 -10 8 -3 12 -2 9 4 -6 10 -25 14 -25 6z"/>
<path d="M5150 5126 c0 -2 7 -7 16 -10 8 -3 12 -2 9 4 -6 10 -25 14 -25 6z"/>
<path d="M5454 2416 c1 -8 5 -18 8 -22 4 -3 5 1 4 10 -1 8 -5 18 -8 22 -4 3
-5 -1 -4 -10z"/>
<path d="M5410 2340 c0 -5 5 -10 11 -10 5 0 7 5 4 10 -3 6 -8 10 -11 10 -2 0
-4 -4 -4 -10z"/>
<path d="M5385 2280 c-3 -6 1 -7 9 -4 18 7 21 14 7 14 -6 0 -13 -4 -16 -10z"/>
<path d="M1655 2180 c-3 -5 -1 -10 4 -10 6 0 11 5 11 10 0 6 -2 10 -4 10 -3 0
-8 -4 -11 -10z"/>
<path d="M5326 2178 c3 -5 10 -6 15 -3 13 9 11 12 -6 12 -8 0 -12 -4 -9 -9z"/>
<path d="M5296 2135 c-9 -26 -7 -32 5 -12 6 10 9 21 6 23 -2 3 -7 -2 -11 -11z"/>
<path d="M1735 2061 c-3 -5 -2 -12 3 -15 5 -3 9 1 9 9 0 17 -3 19 -12 6z"/>
<path d="M5136 1898 c3 -5 10 -6 15 -3 13 9 11 12 -6 12 -8 0 -12 -4 -9 -9z"/>
<path d="M5090 1819 c0 -5 5 -7 10 -4 6 3 10 8 10 11 0 2 -4 4 -10 4 -5 0 -10
-5 -10 -11z"/>
<path d="M4990 1705 c0 -7 30 -13 34 -7 3 4 -4 9 -15 9 -10 1 -19 0 -19 -2z"/>
<path d="M2040 1640 c-9 -6 -10 -10 -3 -10 6 0 15 5 18 10 8 12 4 12 -15 0z"/>
<path d="M2076 1562 c-3 -5 1 -9 9 -9 8 0 12 4 9 9 -3 4 -7 8 -9 8 -2 0 -6 -4
-9 -8z"/>
<path d="M4770 1440 c0 -5 5 -10 11 -10 5 0 7 5 4 10 -3 6 -8 10 -11 10 -2 0
-4 -4 -4 -10z"/>
<path d="M4713 1395 c0 -8 4 -12 9 -9 5 3 6 10 3 15 -9 13 -12 11 -12 -6z"/>
<path d="M4626 1318 c3 -5 10 -6 15 -3 13 9 11 12 -6 12 -8 0 -12 -4 -9 -9z"/>
<path d="M2399 1293 c-13 -16 -12 -17 4 -4 9 7 17 15 17 17 0 8 -8 3 -21 -13z"/>
<path d="M4635 1280 c3 -5 8 -10 11 -10 2 0 4 5 4 10 0 6 -5 10 -11 10 -5 0
-7 -4 -4 -10z"/>
<path d="M4570 1259 c0 -5 5 -7 10 -4 6 3 10 8 10 11 0 2 -4 4 -10 4 -5 0 -10
-5 -10 -11z"/>
<path d="M2520 1200 c-9 -6 -10 -10 -3 -10 6 0 15 5 18 10 8 12 4 12 -15 0z"/>
<path d="M4493 1175 c0 -8 4 -12 9 -9 5 3 6 10 3 15 -9 13 -12 11 -12 -6z"/>
<path d="M2630 1126 c0 -2 7 -7 16 -10 8 -3 12 -2 9 4 -6 10 -25 14 -25 6z"/>
<path d="M2555 1081 c-3 -5 -2 -12 3 -15 5 -3 9 1 9 9 0 17 -3 19 -12 6z"/>
<path d="M2635 1059 c-3 -4 2 -6 10 -5 21 3 28 13 10 13 -9 0 -18 -4 -20 -8z"/>
<path d="M2686 1042 c-3 -5 1 -9 9 -9 8 0 12 4 9 9 -3 4 -7 8 -9 8 -2 0 -6 -4
-9 -8z"/>
<path d="M4175 991 c-3 -5 -2 -12 3 -15 5 -3 9 1 9 9 0 17 -3 19 -12 6z"/>
<path d="M2895 969 c-4 -6 -5 -12 -2 -15 2 -3 7 2 10 11 7 17 1 20 -8 4z"/>
<path d="M4059 953 c-13 -16 -12 -17 4 -4 16 13 21 21 13 21 -2 0 -10 -8 -17
-17z"/>
<path d="M4116 938 c3 -4 11 -5 19 -1 21 7 19 12 -4 10 -11 0 -18 -5 -15 -9z"/>
<path d="M2999 913 c-13 -16 -12 -17 4 -4 16 13 21 21 13 21 -2 0 -10 -8 -17
-17z"/>
<path d="M3050 859 c0 -5 5 -7 10 -4 6 3 10 8 10 11 0 2 -4 4 -10 4 -5 0 -10
-5 -10 -11z"/>
<path d="M3256 807 c3 -10 9 -15 12 -12 3 3 0 11 -7 18 -10 9 -11 8 -5 -6z"/>
<path d="M3380 766 c0 -2 8 -10 18 -17 15 -13 16 -12 3 4 -13 16 -21 21 -21
13z"/>
<path d="M3500 766 c0 -2 8 -10 18 -17 15 -13 16 -12 3 4 -13 16 -21 21 -21
13z"/>
<path d="M3636 753 c-6 -14 -5 -15 5 -6 7 7 10 15 7 18 -3 3 -9 -2 -12 -12z"/>
<path d="M3295 741 c-3 -5 -2 -12 3 -15 5 -3 9 1 9 9 0 17 -3 19 -12 6z"/>
<path d="M3505 719 c-3 -4 2 -6 10 -5 21 3 28 13 10 13 -9 0 -18 -4 -20 -8z"/>
<path d="M3453 695 c0 -8 4 -12 9 -9 5 3 6 10 3 15 -9 13 -12 11 -12 -6z"/>
</g>
</svg>
