<svg width="260" height="260" viewBox="0 0 260 260" fill="none" xmlns="http://www.w3.org/2000/svg">
<g clip-path="url(#clip0_1_3)">
<rect width="260" height="260" fill="#023047"/>
<path d="M130 238.333C104.903 232.014 84.184 217.615 67.8437 195.135C51.5035 172.656 43.3333 147.694 43.3333 120.25V54.1667L130 21.6667L216.667 54.1667V120.25C216.667 147.694 208.496 172.656 192.156 195.135C175.816 217.615 155.097 232.014 130 238.333ZM130 215.583C148.778 209.625 164.306 197.708 176.583 179.833C188.861 161.958 195 142.097 195 120.25V69.0625L130 44.6875L65 69.0625V120.25C65 142.097 71.1389 161.958 83.4166 179.833C95.6944 197.708 111.222 209.625 130 215.583Z" fill="black"/>
</g>
<defs>
<clipPath id="clip0_1_3">
<rect width="260" height="260" fill="white"/>
</clipPath>
</defs>
</svg>
